<svg width="94" height="94" viewBox="0 0 94 94" fill="none" xmlns="http://www.w3.org/2000/svg">
<g id="Elemento Outline" clip-path="url(#clip0_2619_106)">
<path id="Vector" fill-rule="evenodd" clip-rule="evenodd" d="M51.5342 46.7948C52.1712 46.4063 52.7117 45.5923 53.1476 44.6875C58.884 47.032 62.9151 52.5721 62.9151 59.033C62.9151 67.616 55.8009 74.574 47.0251 74.574C43.4226 74.574 40.1001 73.4014 37.4349 71.4254C36.5606 71.0114 35.8413 70.6137 35.2527 70.2882C34.3397 69.7835 33.741 69.4525 33.3661 69.5043C32.2702 69.6554 32.5884 70.6637 32.8775 71.5796C33.0738 72.2018 33.2569 72.7814 32.9736 73.0204C32.6772 73.2709 31.7174 72.3557 30.5958 71.2864C29.0691 69.8307 27.2427 68.0893 26.3814 68.6124C25.7005 69.026 26.3616 70.1479 27.1709 71.5212L27.2309 71.6231C27.5728 72.2036 27.969 72.7948 28.3305 73.3342C29.0654 74.4304 29.6573 75.3139 29.3612 75.4633C29.0032 75.644 26.5089 73.9604 24.4069 71.6231C23.5956 70.7211 22.8098 69.7433 22.0795 68.8347V68.8345C20.4809 66.8455 19.1491 65.1885 18.4015 65.3848C17.5022 65.6209 18.1825 67.4759 19.1822 69.261C19.6496 70.0958 20.1995 70.9458 20.6755 71.6819V71.682C21.416 72.8266 21.978 73.6952 21.7742 73.802C21.4991 73.9458 19.0792 71.586 17.4355 68.6124C16.4593 66.846 15.6395 64.894 14.9759 63.3138C14.2562 61.6 13.7201 60.3235 13.3671 60.1949C12.1405 59.7486 12.1405 62.2494 12.6325 65.8586C12.6966 66.3296 12.7922 66.8234 12.9099 67.3263C17.6804 82.7616 32.335 94.0003 49.6734 94.0003C70.8816 94.0003 88.0741 77.1853 88.0741 56.4428C88.0741 36.7006 72.5 20.5163 52.7125 19.0011C52.7374 18.0711 53.2229 16.2268 53.2229 16.2268C53.2229 16.2268 56.7161 7.77493 56.9008 5.96886C56.9129 5.84899 56.9274 5.71873 56.943 5.58001C57.1606 3.62859 57.5654 0.000244141 54.4439 0.000244141C52.7769 0.000244141 52.0018 1.24035 51.1152 2.65866V2.65868C50.7748 3.20317 50.4179 3.77392 49.9879 4.31084C46.8911 8.17817 41.6836 13.0076 38.7309 15.5806C32.4898 21.0188 26.3666 25.4882 22.7953 28.0949L22.7951 28.095C21.1709 29.2805 20.0746 30.0808 19.7354 30.4114C17.1786 32.9039 8.01139 49.4395 8.01139 49.4395C8.01139 49.4395 5.04681 54.7446 6.10054 55.8206C7.15428 56.8965 9.69536 56.6499 9.69536 56.6499C9.69536 56.6499 43.833 48.8184 46.8892 48.2008C47.7121 48.0344 48.293 47.9384 48.7389 47.8648C49.9497 47.6649 50.1671 47.6289 51.5342 46.7948ZM27.3976 36.7307C25.5652 38.4725 22.5262 42.63 22.5262 42.63C22.5262 42.63 28.1742 42.9779 31.2849 40.0211C34.3957 37.0642 33.683 32.0251 33.683 32.0251C33.683 32.0251 29.2299 34.989 27.3976 36.7307Z" fill="url(#paint0_linear_2619_106)"/>
</g>
<defs>
<linearGradient id="paint0_linear_2619_106" x1="-2.35331" y1="7.0491" x2="71.7071" y2="108.47" gradientUnits="userSpaceOnUse">
<stop stop-color="white"/>
<stop offset="1" stop-color="white" stop-opacity="0"/>
</linearGradient>
<clipPath id="clip0_2619_106">
<rect width="94" height="94" fill="white"/>
</clipPath>
</defs>
</svg>
