<svg width="94" height="94" viewBox="0 0 94 94" fill="none" xmlns="http://www.w3.org/2000/svg">
<g id="Elemento Outline" clip-path="url(#clip0_2619_1930)">
<path id="Vector" fill-rule="evenodd" clip-rule="evenodd" d="M72.5439 44.9385C72.5386 44.9312 72.5364 44.922 72.5378 44.913L78.5347 9.94462C78.5375 9.92852 78.5516 9.91675 78.5678 9.91675H80.4658C80.4805 9.91675 80.4933 9.92624 80.4977 9.94019L94.0084 52.7181C94.0126 52.7314 94.008 52.746 93.997 52.7547L84.0354 60.5323C84.0205 60.5438 83.999 60.5409 83.9878 60.5257L72.5439 44.9385ZM-0.18457 68.12C-0.18457 68.1345 -0.175244 68.1474 -0.161458 68.152L20.3733 74.8662C20.3833 74.8695 20.3943 74.8678 20.4029 74.8619L66.303 43.1737C66.3107 43.1683 66.3158 43.1601 66.3171 43.1509L71.2393 10.1239C71.2424 10.1036 71.2266 10.0854 71.2062 10.0854H30.5501C30.54 10.0854 30.5307 10.0899 30.5242 10.0976L-0.176855 47.1338C-0.181842 47.1398 -0.18457 47.1474 -0.18457 47.1553V68.12ZM28.9303 76.5769L51.3641 83.9256C51.3742 83.9289 51.3854 83.9273 51.3941 83.921L78.1031 64.7625C78.118 64.752 78.1217 64.7316 78.1115 64.7166L68.0991 49.817C68.0886 49.8014 68.0677 49.7974 68.0523 49.808L28.9303 76.5769Z" fill="url(#paint0_linear_2619_1930)"/>
</g>
<defs>
<linearGradient id="paint0_linear_2619_1930" x1="-9.61241" y1="15.4666" x2="39.4626" y2="113.278" gradientUnits="userSpaceOnUse">
<stop stop-color="white"/>
<stop offset="1" stop-color="white" stop-opacity="0"/>
</linearGradient>
<clipPath id="clip0_2619_1930">
<rect width="94" height="94" fill="white"/>
</clipPath>
</defs>
</svg>
