<svg width="94" height="94" viewBox="0 0 94 94" fill="none" xmlns="http://www.w3.org/2000/svg">
<g id="Elemento Outline" clip-path="url(#clip0_2619_14753)">
<path id="Vector" fill-rule="evenodd" clip-rule="evenodd" d="M16.1982 7.81429C17.3358 3.32282 21.4048 -0.000488281 26.2498 -0.000488281C29.8841 -0.000488281 33.0817 1.86936 34.9331 4.69951H37.9648C39.8482 2.76656 42.4797 1.56618 45.3917 1.56618C49.661 1.56618 53.3277 4.14656 54.9173 7.83285H57.4554C59.0459 6.83994 60.9252 6.26617 62.9383 6.26617C67.2078 6.26617 70.8743 8.84657 72.4639 12.5329H79.3661C79.425 12.5329 79.4803 12.5487 79.5278 12.5764C79.8431 12.5476 80.1623 12.5329 80.4849 12.5329C86.2114 12.5329 90.8534 17.175 90.8534 22.9014V53.9919L90.8535 54.0495L90.8534 54.1072V54.555C90.8534 54.7446 90.8482 54.9335 90.8379 55.1215C90.2141 76.6898 70.8202 93.9995 46.9867 93.9995C22.7599 93.9995 3.12012 76.1133 3.12012 54.0495C3.12012 43.3994 7.69617 33.7226 15.1553 26.5609C15.1367 36.9437 15.3121 47.6777 16.1205 47.4936C18.2852 47.0001 16.5939 14.8411 16.1982 7.81429Z" fill="url(#paint0_linear_2619_14753)"/>
</g>
<defs>
<linearGradient id="paint0_linear_2619_14753" x1="-5.66104" y1="7.04837" x2="66.8073" y2="112.969" gradientUnits="userSpaceOnUse">
<stop stop-color="white"/>
<stop offset="1" stop-color="white" stop-opacity="0"/>
</linearGradient>
<clipPath id="clip0_2619_14753">
<rect width="94" height="94" fill="white"/>
</clipPath>
</defs>
</svg>
