<svg width="94" height="94" viewBox="0 0 94 94" fill="none" xmlns="http://www.w3.org/2000/svg">
<g id="Elemento Outline">
<path id="Vector" fill-rule="evenodd" clip-rule="evenodd" d="M32.8104 87.7083C46.5805 87.7083 58.3694 80.0552 63.2363 69.2063C63.2958 69.0739 43.6966 74.2997 44.3215 72.4524C44.6006 71.6275 56.615 67.2385 65.3682 62.1192C70.3992 59.1767 72.716 52.948 72.716 52.948C72.716 52.948 64.24 57.0632 59.9551 58.1071C51.3203 60.2111 43.7194 59.9846 43.7194 59.7653C43.7194 59.2913 56.3405 56.8932 73.8825 46.2035C82.1338 41.1754 84.3749 32.5145 84.3749 32.5145C84.3749 32.5145 75.3034 37.918 69.8194 39.702C56.8144 43.9326 44.9465 45.2075 44.9465 44.635C44.9465 43.4093 55.3906 40.5374 66.4639 35.1719C72.2214 32.3821 77.2076 28.7374 82.9858 24.6842C92.4406 18.0527 93.9998 6.2417 93.9998 6.2417C93.9998 6.2417 84.6747 12.2562 80.124 14.2536C61.3462 22.4954 44.7655 26.8187 32.8104 27.7547C14.7639 29.1676 0 41.759 0 58.1071C0 74.4554 14.6897 87.7083 32.8104 87.7083Z" fill="url(#paint0_linear_2619_442)"/>
</g>
<defs>
<linearGradient id="paint0_linear_2619_442" x1="6" y1="12.0001" x2="88" y2="86.5001" gradientUnits="userSpaceOnUse">
<stop stop-color="white"/>
<stop offset="1" stop-color="white" stop-opacity="0"/>
</linearGradient>
</defs>
</svg>
