<svg width="94" height="94" viewBox="0 0 94 94" fill="none" xmlns="http://www.w3.org/2000/svg">
<g id="Elemento Outline" clip-path="url(#clip0_2619_11428)">
<path id="Vector" fill-rule="evenodd" clip-rule="evenodd" d="M83.706 78.0599C83.706 78.0599 71.8532 87.5662 48.2665 83.6324C30.3716 80.6477 20.8273 60.9213 20.8273 50.318C20.8273 25.1785 39.4338 19.4575 52.0131 19.4575C64.5922 19.4575 72.7983 31.7216 72.7983 41.2171C72.7983 50.7125 66.0824 59.0179 55.631 59.0179C45.1797 59.0179 42.0843 51.6806 42.0843 44.9348C42.0843 38.1892 47.542 35.8126 52.5194 35.8126C57.4969 35.8126 59.2012 40.0621 59.2012 43.7143C59.2012 47.3667 56.3674 48.6746 54.0038 48.6746C51.6402 48.6746 51.4065 47.4822 50.5019 46.229C49.5972 44.976 51.6556 40.2326 48.2665 40.2326C44.8774 40.2326 44.2456 45.6855 44.2456 45.6855C44.2456 45.6855 45.4812 56.2115 55.631 56.0299C65.781 55.8482 70.5961 48.0014 69.1967 40.2326C67.7974 32.4637 60.2577 24.2084 47.0254 25.8765C33.7931 27.5446 28.3904 40.9147 30.7718 55.2027C33.1532 69.4909 50.2702 77.7695 63.7286 74.791C77.1871 71.8126 90.5915 62.0693 90.5915 37.3662C90.5915 12.6629 69.1967 -2.18602 43.6855 0.261161C18.1742 2.70833 2.33794 25.012 3.3516 51.8102C4.36525 78.6085 29.7937 93.2037 51.296 93.9558C72.7983 94.7082 85.9801 82.2611 85.9801 82.2611C85.9801 82.2611 88.9446 79.6175 87.7823 77.5532C86.6201 75.4889 83.706 78.0599 83.706 78.0599Z" fill="url(#paint0_linear_2619_11428)"/>
</g>
<defs>
<linearGradient id="paint0_linear_2619_11428" x1="-5.43069" y1="7.04687" x2="67.1606" y2="112.618" gradientUnits="userSpaceOnUse">
<stop stop-color="white"/>
<stop offset="1" stop-color="white" stop-opacity="0"/>
</linearGradient>
<clipPath id="clip0_2619_11428">
<rect width="94" height="94" fill="white"/>
</clipPath>
</defs>
</svg>
