<svg width="94" height="94" viewBox="0 0 94 94" fill="none" xmlns="http://www.w3.org/2000/svg">
<g id="Elemento Outline">
<path id="Vector" fill-rule="evenodd" clip-rule="evenodd" d="M17.8863 80.9023C17.5637 80.5988 17.2446 80.2895 16.9292 79.9741C0.280102 63.325 0.280105 36.3314 16.9292 19.6824C33.5783 3.03324 86.6288 1.91943 86.6288 1.91943C86.6288 1.91943 93.8701 63.325 77.2211 79.9741C62.4344 94.7607 39.4885 96.4149 22.8764 84.9368L36.2618 68.5105L57.6597 63.8907L40.1928 62.1445L51.2932 50.8421L63.9289 48.0741L53.9373 45.1151L63.9289 27.0906L49.7169 43.0317L44.2287 35.2872L46.1607 48.0741L36.2618 59.2333L31.6733 45.1149V63.8907L17.8863 80.9023Z" fill="url(#paint0_linear_2619_3729)"/>
</g>
<defs>
<linearGradient id="paint0_linear_2619_3729" x1="-3.94043" y1="8.70895" x2="66.0856" y2="110.15" gradientUnits="userSpaceOnUse">
<stop stop-color="white"/>
<stop offset="1" stop-color="white" stop-opacity="0"/>
</linearGradient>
</defs>
</svg>
