<svg width="14" height="14" viewBox="0 0 14 14" fill="none" xmlns="http://www.w3.org/2000/svg">
<g clip-path="url(#clip0_1410_4538)">
<path fill-rule="evenodd" clip-rule="evenodd" d="M10.43 1.52515L10.4702 5.05384L7.39244 6.5313L7.35449 3.19954L10.43 1.52515Z" fill="#73CEC0"/>
<path fill-rule="evenodd" clip-rule="evenodd" d="M13.5153 7.08545L10.4685 8.82817L7.41992 7.0827L10.4669 5.48218L13.5153 7.08545Z" fill="#73CEC0"/>
<path fill-rule="evenodd" clip-rule="evenodd" d="M6.87757 7.08545L3.83081 8.82817L0.782227 7.0827L3.82923 5.48218L6.87757 7.08545Z" fill="#73CEC0"/>
<path fill-rule="evenodd" clip-rule="evenodd" d="M3.79688 1.51074L6.9592 3.07693L6.87835 6.48997L3.89252 5.01121L3.79688 1.51074Z" fill="#73CEC0"/>
<path fill-rule="evenodd" clip-rule="evenodd" d="M10.5158 12.6067L7.35352 11.0405L7.43437 7.62744L10.4202 9.10623L10.5158 12.6067Z" fill="#73CEC0"/>
<path fill-rule="evenodd" clip-rule="evenodd" d="M3.90641 12.6387L3.86621 9.11003L6.94399 7.63257L6.98194 10.9643L3.90641 12.6387Z" fill="#73CEC0"/>
</g>
<defs>
<clipPath id="clip0_1410_4538">
<rect width="13.0588" height="13.0588" fill="white" transform="translate(0.62793 0.529297)"/>
</clipPath>
</defs>
</svg>
