<svg width="94" height="94" viewBox="0 0 94 94" fill="none" xmlns="http://www.w3.org/2000/svg">
<g id="Elemento Outline">
<path id="Vector" fill-rule="evenodd" clip-rule="evenodd" d="M62.8264 0.09252C62.8949 -0.00509974 63.0293 -0.0288239 63.1269 0.0395302L69.8013 4.71301C69.899 4.78136 69.9227 4.9159 69.8544 5.01352L60.5647 18.2804C65.0809 19.7232 68.1578 21.2796 68.1578 21.2796C68.1578 21.2796 60.637 34.2159 47.8811 34.2159C35.1252 34.2159 26.061 22.159 26.061 22.159C26.061 22.159 29.275 20.1079 34.0393 18.3487L23.8498 6.20552C23.7732 6.11422 23.7852 5.97812 23.8764 5.90152L30.1181 0.664115C30.2095 0.587515 30.3455 0.599421 30.4221 0.690713L43.3236 16.0661C44.4283 15.9412 45.5537 15.8713 46.6894 15.8713C48.3218 15.8713 49.9521 15.9954 51.5437 16.206L62.8264 0.09252ZM65.3501 34.8286C68.7541 32.3974 73.905 26.0521 73.905 26.0521C73.905 26.0521 87.0621 36.4784 87.0621 58.586C87.0621 80.6934 64.3155 93.999 64.3155 93.999C64.3155 93.999 53.4477 83.0236 50.7797 69.1107C48.1119 55.1978 54.7262 39.7491 54.7262 39.7491C54.7262 39.7491 61.9459 37.2597 65.3501 34.8286ZM28.6895 34.8286C25.2855 32.3974 20.1346 26.0521 20.1346 26.0521C20.1346 26.0521 6.97754 36.4784 6.97754 58.586C6.97754 80.6934 29.7241 93.999 29.7241 93.999C29.7241 93.999 40.5919 83.0236 43.2599 69.1107C45.9277 55.1978 39.3134 39.7491 39.3134 39.7491C39.3134 39.7491 32.0937 37.2597 28.6895 34.8286Z" fill="url(#paint0_linear_2619_2512)"/>
</g>
<defs>
<linearGradient id="paint0_linear_2619_2512" x1="-1.03805" y1="7.04924" x2="73.588" y2="106.616" gradientUnits="userSpaceOnUse">
<stop stop-color="white"/>
<stop offset="1" stop-color="white" stop-opacity="0"/>
</linearGradient>
</defs>
</svg>
