<svg width="94" height="94" viewBox="0 0 94 94" fill="none" xmlns="http://www.w3.org/2000/svg">
<g id="Elemento Outline">
<path id="Vector" fill-rule="evenodd" clip-rule="evenodd" d="M0.00938361 46.732C-0.00312194 46.7107 -0.00312822 46.6843 0.00936688 46.6628L23.646 6.27847C23.6583 6.25752 23.6808 6.24463 23.7051 6.24463H70.554C70.5784 6.24463 70.601 6.25763 70.6133 6.27876L93.9907 46.6632C94.003 46.6843 94.003 46.7105 93.9907 46.7316L70.6133 87.0707C70.601 87.0918 70.5784 87.1048 70.554 87.1048H23.7051C23.6808 87.1048 23.6583 87.092 23.646 87.0711L0.00938361 46.732ZM68.7774 46.6747C68.7774 58.6979 59.0305 68.4447 47.0074 68.4447C34.9842 68.4447 25.2374 58.6979 25.2374 46.6747C25.2374 34.6514 34.9842 24.9047 47.0074 24.9047C59.0305 24.9047 68.7774 34.6514 68.7774 46.6747Z" fill="url(#paint0_linear_2619_8186)"/>
</g>
<defs>
<linearGradient id="paint0_linear_2619_8186" x1="-9.40836" y1="12.3082" x2="47.0375" y2="115.067" gradientUnits="userSpaceOnUse">
<stop stop-color="white"/>
<stop offset="1" stop-color="white" stop-opacity="0"/>
</linearGradient>
</defs>
</svg>
